<?xml version="1.0" standalone="no"?>
<!DOCTYPE svg PUBLIC "-//W3C//DTD SVG 20010904//EN"
 "http://www.w3.org/TR/2001/REC-SVG-20010904/DTD/svg10.dtd">
<svg version="1.0" xmlns="http://www.w3.org/2000/svg"
 width="918.000000pt" height="931.000000pt" viewBox="0 0 918.000000 931.000000"
 preserveAspectRatio="xMidYMid meet">
<metadata>
Created by potrace 1.15, written by Peter Selinger 2001-2017
</metadata>
<g transform="translate(0.000000,931.000000) scale(0.100000,-0.100000)"
fill="#000000" stroke="none">
<path d="M4065 8635 c-21 -9 -42 -20 -46 -26 -3 -6 -10 -11 -15 -11 -5 0 -8
-4 -6 -10 1 -5 -2 -6 -8 -3 -6 4 -25 -8 -41 -26 -31 -35 -36 -45 -18 -33 7 4
10 2 8 -5 -3 -7 -8 -12 -13 -11 -13 3 -26 -22 -26 -50 0 -17 -3 -21 -8 -12 -6
8 -13 -8 -22 -45 -7 -32 -17 -62 -20 -68 -15 -20 -62 -196 -56 -210 3 -8 0
-14 -7 -12 -6 1 -13 -9 -15 -23 -2 -14 -7 -29 -12 -35 -4 -5 -10 -23 -14 -40
-5 -22 -4 -26 4 -15 8 12 10 11 10 -7 0 -12 3 -30 7 -40 3 -10 2 -14 -2 -10
-5 4 -15 -3 -22 -15 -12 -21 -12 -20 -8 16 2 21 2 36 -2 33 -3 -4 -7 -17 -8
-29 -2 -13 -11 -41 -20 -62 -10 -23 -14 -52 -11 -68 3 -15 1 -28 -4 -28 -6 0
-10 6 -11 13 0 6 -4 3 -9 -8 -5 -11 -6 -34 -4 -51 4 -20 0 -35 -10 -44 -14
-11 -16 -10 -10 6 4 15 4 16 -4 5 -6 -8 -8 -20 -5 -28 3 -7 0 -13 -7 -13 -6 0
-10 -8 -9 -17 3 -33 -1 -44 -13 -37 -7 4 -8 3 -4 -5 4 -6 1 -22 -8 -35 -8 -13
-12 -34 -10 -47 5 -20 4 -21 -6 -9 -9 12 -11 10 -7 -12 2 -16 -2 -36 -10 -45
-13 -16 -13 -16 -3 5 6 12 7 22 3 22 -5 0 -16 -23 -26 -51 -14 -39 -16 -54 -7
-63 8 -8 10 -7 5 6 -4 9 -2 25 4 35 9 15 10 13 5 -9 -4 -20 -2 -28 7 -28 10 0
11 -3 3 -8 -7 -4 -14 -16 -16 -27 -2 -11 -10 -19 -16 -18 -7 2 -12 -3 -12 -10
0 -8 -3 -7 -9 2 -8 12 -11 8 -17 -15 -4 -16 -13 -38 -21 -50 -7 -12 -10 -29
-7 -39 5 -13 4 -16 -5 -10 -10 6 -11 3 -1 -15 11 -20 10 -22 -3 -17 -12 4 -14
2 -10 -10 4 -11 3 -14 -6 -9 -8 6 -10 1 -6 -17 4 -16 -1 -36 -14 -58 -12 -19
-21 -27 -21 -19 -1 8 -7 2 -14 -15 -7 -16 -9 -31 -4 -33 4 -2 8 -16 8 -30 l-1
-27 -13 24 c-12 21 -14 21 -20 6 -3 -10 -4 -20 -1 -23 3 -3 5 1 5 9 1 18 30
-48 30 -67 0 -24 -17 -15 -30 16 -11 27 -30 33 -30 9 0 -6 4 -8 9 -5 5 3 12
-1 15 -10 8 -20 8 -24 -1 -23 -34 6 -58 -21 -67 -72 -1 -8 -15 -34 -30 -59
-17 -25 -29 -57 -28 -74 1 -22 -2 -26 -8 -16 -6 8 -10 10 -10 4 0 -6 3 -14 7
-17 11 -12 13 -120 2 -134 -7 -7 -20 -13 -30 -13 -10 0 -28 -10 -40 -22 l-22
-23 8 30 c8 35 4 32 -17 -11 -13 -27 -13 -33 0 -50 13 -18 14 -18 7 4 -4 16
-2 22 8 22 9 0 14 -9 13 -24 -1 -20 -6 -24 -27 -23 -19 1 -25 6 -21 17 8 23
-4 9 -27 -33 -20 -36 -30 -66 -12 -39 5 9 8 -2 8 -29 0 -38 -1 -40 -13 -24 -7
10 -11 22 -7 28 3 6 1 7 -5 3 -9 -5 -9 -13 -2 -27 7 -11 7 -19 1 -19 -5 0 -11
5 -13 11 -2 6 -9 -2 -16 -17 -11 -26 -11 -27 2 -11 9 12 16 14 21 8 9 -16 -3
-31 -25 -31 -21 0 -31 -20 -23 -49 5 -22 -22 -58 -32 -42 -3 5 -1 12 5 16 5 3
10 12 10 18 0 7 -10 -3 -21 -21 -12 -18 -19 -36 -15 -39 3 -4 6 0 6 7 0 7 9 1
20 -13 26 -33 25 -35 -9 -33 -21 0 -27 5 -24 16 7 20 -18 -15 -52 -73 -16 -28
-25 -56 -22 -68 4 -14 2 -19 -7 -16 -9 4 -13 -3 -13 -20 0 -13 -6 -30 -13 -36
-10 -9 -11 -7 -5 13 7 24 7 24 -8 5 -11 -14 -12 -24 -5 -32 7 -9 7 -13 -1 -13
-7 0 -9 -4 -6 -10 3 -5 1 -10 -4 -10 -6 0 -11 6 -11 13 0 6 -7 -1 -15 -16 -8
-16 -14 -33 -12 -40 1 -6 -4 -11 -11 -12 -8 0 -20 -11 -27 -25 -16 -28 -20
-53 -5 -30 5 8 10 11 10 5 0 -19 -18 -38 -29 -31 -6 4 -13 -5 -16 -21 -8 -40
-36 -93 -49 -93 -6 0 -5 5 2 12 7 7 12 17 12 22 0 6 -9 -2 -20 -19 -11 -16
-20 -40 -20 -53 0 -13 -7 -30 -15 -38 -9 -9 -13 -26 -10 -47 3 -18 3 -26 -1
-20 -4 9 -11 10 -25 2 -11 -5 -24 -7 -29 -4 -6 3 -10 -1 -10 -9 0 -9 -5 -16
-10 -16 -6 0 -5 -8 2 -21 11 -17 10 -22 -4 -33 -10 -7 -18 -26 -18 -42 1 -28
1 -28 15 -10 11 15 15 16 15 5 0 -35 -41 -50 -69 -25 -14 13 -22 6 -69 -66
-29 -44 -46 -75 -38 -69 12 10 14 8 12 -14 -2 -22 -46 -69 -46 -49 0 4 -9 -1
-20 -11 -11 -10 -20 -23 -20 -29 0 -6 7 -3 14 6 7 10 16 15 20 11 8 -8 -24
-44 -34 -38 -4 3 -13 -2 -20 -10 -8 -9 -8 -15 -2 -15 6 0 12 5 14 12 3 7 7 5
11 -6 4 -10 3 -15 -3 -11 -6 3 -10 1 -10 -5 0 -7 -7 -10 -14 -7 -11 4 -13 1
-9 -10 4 -10 2 -14 -4 -10 -30 18 -67 -94 -38 -116 6 -5 3 -7 -6 -5 -9 2 -26
-8 -38 -22 -19 -22 -19 -20 4 24 28 54 29 60 16 51 -6 -3 -20 -27 -33 -53 -13
-26 -26 -48 -30 -50 -5 -2 -8 -10 -8 -18 0 -9 -4 -12 -10 -9 -11 7 -14 -8 -3
-19 4 -3 13 4 20 16 12 22 12 21 9 -12 -2 -23 -9 -36 -20 -38 -22 -5 -20 -19
4 -27 11 -3 20 -13 20 -21 0 -17 -8 -17 -40 1 -34 20 -49 18 -43 -3 2 -11 -3
-24 -14 -32 -15 -12 -16 -12 -5 0 6 8 12 19 12 24 0 6 -7 0 -16 -12 -9 -13
-13 -29 -10 -37 3 -8 0 -12 -7 -9 -13 4 -57 -65 -57 -91 0 -9 -4 -14 -9 -10
-5 3 -13 -4 -16 -16 -4 -11 -23 -47 -42 -79 -19 -32 -36 -65 -37 -72 -2 -7
-22 -52 -45 -100 -23 -48 -39 -93 -35 -99 4 -8 3 -9 -4 -5 -7 4 -12 3 -12 -3
0 -5 -3 -18 -6 -28 -5 -15 -4 -15 5 -3 7 9 11 11 11 3 0 -7 -8 -16 -17 -22
-14 -8 -18 -21 -16 -66 2 -32 -2 -64 -8 -74 -8 -12 -9 -9 -4 14 3 17 0 37 -5
45 -8 11 -9 7 -4 -14 5 -23 4 -27 -6 -21 -10 6 -12 4 -6 -11 4 -10 9 -32 12
-48 2 -15 9 -35 15 -42 7 -8 9 -18 5 -21 -4 -4 -11 -1 -16 7 -9 13 -10 13 -10
0 0 -12 -2 -13 -9 -1 -7 11 -10 11 -15 0 -6 -15 2 43 11 76 3 11 2 17 -2 13
-13 -12 -42 -145 -38 -179 2 -25 1 -29 -5 -14 -7 15 -10 8 -16 -34 -4 -30 -9
-68 -11 -85 -3 -17 3 -3 13 32 l17 63 2 -213 c2 -117 -1 -229 -6 -248 -8 -34
-8 -33 -15 25 -4 33 -11 85 -16 115 -7 46 -8 40 -4 -32 4 -65 3 -88 -6 -88 -8
0 -10 11 -6 33 3 17 1 48 -4 67 -6 23 -8 -40 -5 -185 3 -121 5 -230 5 -242 0
-13 4 -23 8 -23 4 0 6 -24 5 -52 -2 -43 0 -48 7 -28 8 20 9 16 5 -18 -7 -55 4
-120 16 -100 5 7 6 -4 3 -27 -4 -31 -3 -37 6 -25 9 12 11 9 8 -17 -3 -18 0
-29 5 -26 5 3 14 -1 19 -8 7 -10 7 -7 3 9 -7 25 10 31 19 6 11 -29 7 -56 -8
-51 -9 4 -16 -3 -19 -19 -2 -13 -1 -24 3 -24 13 0 31 -53 22 -62 -11 -11 -4
-48 10 -48 5 0 7 -4 4 -9 -3 -5 2 -30 11 -57 16 -48 30 -67 44 -59 3 3 6 -10
7 -27 1 -24 -2 -28 -8 -18 -16 25 -11 4 10 -41 11 -24 20 -37 20 -29 1 8 7 2
14 -15 7 -16 11 -33 9 -37 -5 -10 77 -181 84 -174 3 3 0 14 -8 23 -12 15 -10
15 9 -1 14 -12 19 -23 13 -30 -11 -13 12 -49 24 -38 5 4 5 2 1 -5 -9 -16 32
-96 44 -88 6 4 10 -1 10 -9 0 -9 5 -16 11 -16 5 0 7 -4 4 -10 -3 -5 -1 -15 5
-22 6 -7 18 -22 26 -33 14 -19 14 -19 3 5 -10 23 -9 22 15 -5 39 -46 78 -107
65 -103 -7 2 -21 21 -32 41 -10 20 -23 37 -28 37 -10 0 39 -77 77 -120 12 -14
32 -36 43 -50 11 -14 20 -20 21 -14 0 6 -9 19 -20 29 -11 10 -20 22 -20 27 0
5 11 -3 25 -18 14 -15 25 -38 25 -51 0 -13 4 -22 9 -19 5 3 11 -3 14 -14 3
-11 17 -24 31 -30 14 -5 26 -12 26 -15 0 -4 -6 -3 -12 1 -9 5 -9 3 1 -9 7 -9
17 -14 22 -11 5 3 9 -2 9 -11 0 -9 4 -13 10 -10 6 3 10 -1 10 -10 0 -10 5 -13
12 -9 7 5 9 2 5 -9 -3 -9 0 -18 9 -21 10 -4 13 -2 8 7 -5 6 9 -4 29 -23 41
-38 50 -54 15 -24 -13 10 -7 2 11 -19 35 -37 55 -51 30 -20 -12 14 -9 14 19
-2 17 -11 32 -23 32 -28 0 -5 -7 -4 -15 3 -8 7 -15 9 -15 6 0 -10 58 -58 64
-54 3 2 13 -8 22 -21 9 -13 32 -29 50 -37 19 -8 34 -18 34 -22 0 -5 21 -24 47
-43 62 -45 73 -52 73 -42 0 5 -21 21 -46 36 -26 15 -44 31 -40 34 3 3 14 0 23
-8 10 -8 30 -21 45 -29 16 -7 28 -22 28 -32 0 -10 7 -18 16 -18 8 0 13 -4 10
-8 -3 -5 9 -17 27 -27 28 -16 30 -16 18 -2 -16 20 -14 20 28 6 17 -6 31 -15
31 -19 0 -5 9 -11 19 -15 11 -3 23 -14 26 -24 6 -19 92 -67 113 -63 6 2 20 -2
30 -8 14 -9 13 -10 -8 -5 -15 3 -9 -3 15 -14 46 -22 59 -25 50 -11 -3 6 1 7 9
4 9 -3 16 -12 16 -19 0 -7 8 -15 18 -18 9 -2 26 -8 37 -12 16 -5 17 -5 5 4
-13 9 -12 11 5 11 11 -1 29 -8 40 -16 19 -16 19 -16 -5 -10 -18 4 -15 1 8 -9
18 -9 37 -13 43 -10 5 4 9 2 9 -3 0 -9 66 -32 178 -62 62 -17 82 -17 40 0 -22
9 -22 9 3 9 15 1 29 -5 32 -12 7 -19 90 -41 124 -33 21 5 24 4 13 -4 -16 -11
4 -13 110 -12 52 0 53 0 15 -7 -39 -6 -37 -7 29 -14 38 -4 71 -5 74 -2 3 3 -9
5 -26 5 -18 0 -32 4 -32 8 0 5 116 9 258 9 141 0 285 1 320 2 l62 1 0 40 0 40
40 0 40 0 0 -44 0 -43 50 8 c27 4 54 11 60 14 5 3 38 11 72 16 81 13 100 18
93 29 -7 11 40 24 59 17 20 -8 88 12 81 23 -3 6 1 7 10 4 9 -4 30 5 49 20 19
14 41 26 48 25 7 0 2 -5 -11 -10 -13 -5 -21 -12 -18 -15 3 -3 34 8 69 24 35
16 73 33 85 36 11 4 24 13 27 21 3 8 11 15 18 15 9 0 8 -3 -2 -10 -8 -5 -10
-10 -5 -10 6 0 23 8 38 19 24 15 26 20 13 30 -11 9 -16 9 -22 0 -5 -8 -3 -9 6
-4 8 5 11 3 9 -4 -7 -21 -24 -7 -24 19 0 33 -23 72 -37 64 -7 -4 -8 -3 -4 4 8
13 -47 106 -56 96 -4 -3 -4 3 -1 15 3 12 1 21 -6 21 -6 0 -10 3 -9 8 3 13 -33
86 -53 108 -11 12 -19 30 -18 40 2 11 1 24 -2 29 -4 6 -18 60 -33 120 -15 61
-31 118 -36 127 -5 10 -7 24 -4 33 4 8 2 21 -3 28 -6 6 -10 102 -11 211 0 110
3 194 7 187 7 -11 27 80 22 102 -1 5 5 27 13 50 8 25 13 69 11 107 -3 50 -2
57 5 31 4 -19 6 -41 3 -50 -4 -13 -3 -13 5 -2 5 7 7 32 4 54 -4 31 -2 39 9 35
9 -3 29 27 60 92 25 53 65 126 88 162 22 36 41 68 41 71 0 3 13 21 30 39 19
20 28 39 24 50 -4 13 -1 16 10 12 9 -3 25 7 43 27 38 44 89 94 141 137 32 26
40 37 30 45 -9 6 -8 7 5 3 20 -6 121 67 109 79 -4 4 2 5 13 3 13 -2 19 2 17
10 -1 8 2 11 7 8 9 -6 91 31 101 45 3 4 17 11 33 14 15 4 24 12 20 18 -3 5 -2
7 4 4 12 -8 73 14 73 26 0 4 4 6 9 3 9 -6 85 22 124 44 10 6 22 8 26 5 5 -3 7
4 4 15 -4 16 -2 19 11 14 9 -3 13 -11 9 -17 -4 -7 2 -8 18 -3 36 10 70 17 100
19 15 1 25 5 23 9 -2 3 15 4 38 1 32 -3 39 -2 28 6 -11 8 -6 9 21 5 22 -4 39
-2 43 5 4 6 24 10 44 10 l37 -1 -30 -9 c-29 -8 -29 -8 5 -4 19 2 46 7 60 10
22 5 22 4 5 -4 -15 -7 -5 -10 40 -10 41 0 54 3 40 9 -12 5 11 7 62 6 44 0 76
-4 70 -8 -8 -5 -6 -8 5 -8 14 0 15 9 11 57 -2 32 0 76 5 98 10 39 10 38 12
-30 1 -38 5 -79 10 -90 9 -21 3 124 -7 185 -4 19 -5 44 -4 55 2 17 0 18 -9 5
-8 -11 -11 -2 -9 40 3 98 0 127 -12 110 -7 -11 -8 -6 -4 20 3 19 1 49 -4 65
-9 30 -9 30 -10 -10 -2 -53 -11 -85 -25 -85 -7 0 -11 16 -9 42 l2 43 -9 -35
c-7 -26 -8 -14 -5 49 2 51 8 87 15 91 7 4 9 13 5 20 -6 9 -9 9 -16 -1 -5 -9
-8 9 -6 45 1 39 -2 61 -10 63 -7 2 -9 12 -6 21 4 14 3 14 -5 3 -6 -8 -18 -16
-27 -17 -14 -2 -16 3 -11 30 5 23 2 37 -9 46 -8 7 -15 28 -15 49 0 28 3 33 11
21 13 -19 10 -8 -20 62 -22 51 -26 55 -37 40 -8 -9 -14 -29 -14 -44 0 -15 -4
-30 -10 -33 -13 -8 -13 2 2 64 6 28 16 47 21 44 5 -3 8 0 5 8 -3 8 -11 14 -19
14 -8 0 -14 11 -15 25 -1 14 -13 48 -28 75 -15 28 -25 42 -22 33 3 -10 1 -18
-5 -18 -12 0 -8 -51 6 -85 8 -17 7 -18 -7 -7 -11 9 -17 9 -20 2 -2 -6 -4 22
-4 61 0 42 3 64 7 53 7 -17 8 -17 8 3 1 12 -4 25 -9 28 -6 4 -7 11 -4 17 4 7
2 8 -4 4 -8 -5 -12 0 -12 13 0 11 -5 23 -11 27 -8 4 -9 -3 -4 -25 6 -28 4 -31
-19 -31 -20 0 -26 5 -26 22 0 21 0 21 15 2 14 -17 14 -15 8 25 -4 32 -3 42 5
37 8 -5 10 -1 5 9 -5 13 -7 14 -14 3 -5 -7 -9 -8 -9 -3 0 6 -5 3 -10 -5 -7
-11 -10 -3 -10 28 0 43 -17 87 -51 131 -12 15 -19 18 -20 10 0 -8 -5 -4 -11 7
-5 12 -21 28 -34 35 -15 8 -23 18 -19 27 3 8 0 20 -5 28 -6 7 -10 18 -8 26 3
13 -68 138 -78 138 -7 0 36 -80 56 -104 13 -17 13 -18 0 -14 -8 2 -25 23 -37
46 -11 23 -23 37 -26 30 -2 -7 -3 3 -2 22 2 47 -10 70 -35 65 -12 -2 -18 0
-15 6 4 5 11 6 17 3 6 -4 8 -1 6 7 -3 8 -10 13 -16 12 -7 -2 -9 4 -5 15 6 14
4 15 -8 5 -13 -11 -15 -9 -15 10 1 16 -4 21 -17 19 -15 -3 -17 1 -12 18 4 13
1 28 -7 38 -8 9 -26 38 -41 63 -25 44 -28 46 -62 42 l-36 -4 2 48 c2 66 1 70
-17 47 -14 -18 -15 -18 -4 3 8 18 7 28 -6 48 -20 30 -29 33 -14 4 6 -11 9 -25
6 -32 -2 -7 -5 -4 -5 6 -1 9 -5 17 -10 17 -5 0 -11 8 -14 18 -2 9 -8 26 -13
36 -5 14 -4 17 4 12 18 -11 14 3 -8 26 -11 12 -28 23 -37 24 -10 2 -19 8 -21
14 -2 5 -7 8 -11 5 -5 -2 -8 9 -7 24 1 16 4 27 8 24 4 -2 5 3 2 11 -3 9 -10
13 -15 11 -16 -10 -51 36 -46 61 5 28 -42 103 -60 97 -7 -3 -14 1 -14 9 -1 7
-3 20 -4 28 -3 32 -85 179 -85 154 0 -5 -5 -2 -11 6 -9 13 -10 12 -5 -2 3 -12
0 -18 -9 -18 -18 0 -20 31 -2 49 7 8 7 11 1 8 -7 -4 -14 6 -19 26 -6 28 -8 29
-14 12 -8 -19 -9 -19 -17 5 -10 31 -11 36 -13 58 -1 15 -3 15 -11 2 -7 -11 -8
-7 -6 16 3 20 -3 42 -15 60 -11 16 -28 48 -39 72 -19 43 -57 99 -47 71 4 -12
-2 -16 -27 -16 l-32 0 -1 77 c0 43 -6 86 -13 96 -9 15 -10 16 -6 2 3 -12 1
-15 -10 -11 -11 4 -14 14 -10 32 3 14 3 20 0 13 -8 -18 -24 -4 -24 21 0 18 2
19 10 7 5 -8 10 -11 10 -7 0 13 -84 167 -88 162 -3 -2 2 -15 11 -29 9 -13 13
-27 10 -30 -11 -10 -34 55 -27 76 3 10 2 18 -3 17 -18 -3 -28 1 -18 9 7 4 3
22 -12 52 -13 25 -22 37 -19 28 3 -12 1 -15 -9 -11 -8 3 -12 9 -9 14 3 5 -4
24 -15 43 -12 18 -21 40 -20 47 0 8 7 1 14 -16 8 -16 14 -24 15 -17 0 17 -57
142 -65 142 -4 0 -4 -7 -1 -16 4 -9 2 -13 -5 -8 -6 3 -9 20 -6 38 l6 31 -14
-30 c-8 -16 -15 -28 -15 -25 -7 31 -7 61 1 65 5 3 6 -2 3 -12 -5 -14 -4 -15 4
-4 12 17 4 44 -10 35 -5 -3 -12 3 -15 15 -3 12 -10 21 -15 21 -6 0 -8 -7 -4
-15 3 -8 1 -15 -4 -15 -6 0 -10 12 -10 26 0 14 -5 35 -11 46 -8 15 -8 19 0 14
6 -4 11 -3 11 3 0 5 3 17 6 25 10 25 -22 9 -33 -17 -7 -15 -9 -3 -8 49 1 45
-4 84 -16 114 -10 25 -20 52 -23 60 -4 8 -4 2 -2 -15 3 -16 8 -38 11 -47 5
-13 2 -17 -14 -15 -12 1 -21 6 -21 12 0 5 -4 4 -9 -4 -6 -9 -8 22 -7 82 2 53
-1 102 -6 109 -6 9 -7 5 -3 -9 7 -25 -4 -30 -24 -10 -10 10 -11 9 -6 -5 4 -11
2 -18 -4 -18 -6 0 -11 5 -11 11 0 8 -4 8 -13 1 -10 -9 -13 -2 -14 31 0 23 2
34 4 25 3 -10 9 -18 14 -18 11 0 12 -5 -5 57 -8 29 -13 72 -11 97 2 34 0 43
-11 39 -8 -3 -14 0 -14 6 0 6 5 11 10 11 7 0 7 6 1 18 -5 9 -14 33 -20 52 -10
35 -10 35 -5 3 6 -37 -3 -93 -15 -93 -9 0 -32 77 -29 100 5 52 -1 60 -42 60
-32 0 -40 4 -40 18 0 10 12 22 30 29 29 11 30 14 29 70 -1 46 -3 52 -9 28 l-7
-30 -11 25 c-8 19 -11 21 -11 7 -1 -10 -5 -15 -11 -12 -5 3 -8 22 -5 42 5 38
15 58 15 29 0 -9 4 -15 9 -12 5 4 12 0 15 -6 3 -7 3 1 -1 17 -3 17 -10 37 -15
45 -7 12 -8 11 -4 -4 6 -16 4 -17 -9 -6 -10 8 -15 28 -14 54 0 23 -6 67 -15
99 -9 32 -16 61 -16 65 0 4 -4 1 -9 -6 -5 -9 -8 1 -8 28 0 23 -5 45 -10 49 -5
3 -13 18 -17 33 -4 20 -11 26 -23 21 -11 -4 -14 -2 -9 5 4 6 1 21 -6 32 -15
24 -95 78 -129 87 -52 13 -155 12 -194 -2z m-1671 -4942 c7 -13 10 -13 17 -2
6 10 9 4 9 -19 0 -20 -4 -31 -10 -27 -5 3 -10 2 -10 -4 0 -5 5 -13 10 -16 7
-4 10 -64 8 -161 -1 -85 -5 -148 -10 -141 -4 7 -7 -5 -7 -28 1 -22 3 -32 6
-22 4 16 13 18 54 15 32 -2 50 1 54 10 2 6 12 12 21 12 10 0 14 -5 11 -14 -3
-8 1 -17 9 -20 8 -3 14 -11 14 -18 -1 -18 -48 -51 -65 -44 -9 3 -12 0 -9 -9 3
-7 -4 -23 -15 -34 -22 -22 -41 -27 -41 -11 0 6 5 10 10 10 6 0 10 5 10 10 0
16 -27 12 -34 -5 -8 -23 3 -86 21 -114 8 -13 11 -21 5 -17 -6 4 -6 -8 0 -34 6
-22 14 -37 19 -35 4 3 7 -7 6 -22 -1 -16 3 -27 9 -26 7 1 9 -8 6 -23 -3 -17 0
-24 8 -22 7 2 15 -3 18 -11 3 -9 0 -11 -8 -6 -10 6 -11 3 -6 -11 5 -10 11 -27
14 -37 4 -15 7 -16 14 -5 7 9 8 8 4 -6 -6 -16 36 -122 53 -136 3 -3 19 -29 34
-59 42 -79 110 -180 118 -175 4 2 10 -4 14 -15 11 -35 66 -96 88 -96 11 0 22
-7 25 -15 5 -13 3 -13 -14 0 -18 14 -17 13 1 -10 37 -44 130 -130 141 -130 6
0 18 -8 25 -17 13 -17 13 -17 -6 -3 -19 14 -19 14 -6 -3 8 -10 21 -15 30 -12
8 3 12 3 9 -1 -12 -11 139 -127 159 -122 14 2 43 -14 38 -22 -2 -4 7 -12 21
-19 14 -6 23 -7 19 -1 -3 6 1 7 9 4 9 -3 14 -9 12 -13 -8 -13 119 -65 162 -67
24 0 48 -6 55 -13 9 -9 4 -9 -21 0 -18 6 -35 9 -37 7 -8 -8 158 -59 203 -62
23 -2 46 -7 50 -11 4 -4 -4 -4 -18 0 -23 6 -22 5 5 -13 44 -28 92 -80 114
-124 12 -25 21 -34 25 -26 3 7 4 0 1 -15 -3 -16 -2 -26 3 -23 6 3 8 -16 5 -45
-4 -43 -1 -53 16 -66 21 -14 29 -43 11 -43 -5 0 -17 -12 -25 -27 -9 -16 -14
-20 -11 -11 3 12 1 15 -9 11 -12 -4 -12 -9 -3 -26 11 -21 10 -21 -7 -7 -17 14
-18 13 -12 -4 9 -22 -19 -59 -36 -49 -6 4 -8 0 -4 -10 4 -11 2 -14 -7 -11 -7
3 -19 -3 -27 -12 -13 -15 -11 -16 11 -9 14 4 22 4 18 0 -4 -4 -21 -9 -38 -11
-17 -2 -39 -9 -48 -15 -15 -10 -15 -10 1 -5 11 4 16 2 11 -5 -3 -6 -15 -8 -26
-6 -11 3 -32 1 -46 -4 -35 -13 -123 -15 -147 -2 -11 6 -35 18 -53 27 -17 10
-37 14 -44 10 -7 -5 -8 -3 -3 6 6 10 4 12 -9 7 -9 -4 -15 -3 -12 2 3 4 -7 13
-22 20 -25 11 -26 10 -8 -4 11 -8 16 -15 12 -15 -4 0 -26 15 -49 33 -76 60
-174 118 -190 112 -8 -4 -18 -2 -22 4 -4 7 1 8 12 4 21 -7 12 3 -31 35 -15 12
-33 19 -39 15 -5 -3 -7 -1 -4 4 4 6 -6 19 -21 28 -15 10 -31 24 -35 32 -4 7
-15 13 -22 13 -8 0 -15 5 -15 11 0 5 -5 7 -10 4 -6 -4 -9 -2 -8 2 2 5 -39 52
-91 103 -51 52 -123 130 -158 175 -78 97 -85 106 -100 131 -6 10 -16 18 -23
16 -7 -2 -9 5 -5 18 4 14 2 20 -8 20 -8 0 -18 7 -21 16 -3 8 -2 12 4 9 6 -3 0
11 -12 32 -12 21 -26 40 -30 41 -4 2 -8 10 -8 18 0 8 -6 13 -12 11 -8 -1 -14
9 -14 23 -2 35 -35 111 -45 104 -5 -3 -9 7 -9 21 0 15 -4 24 -10 20 -10 -6
-11 -6 -15 35 -5 40 -31 101 -40 93 -4 -5 -5 -2 -1 5 9 16 -3 54 -15 47 -5 -3
-6 1 -3 10 6 14 -21 130 -33 145 -2 2 -8 -2 -13 -10 -5 -8 -12 -11 -15 -8 -4
4 0 16 8 28 18 25 12 86 -10 108 -7 7 -13 21 -12 30 0 14 2 13 9 -3 8 -19 9
-19 9 2 1 12 -3 24 -8 27 -4 3 -6 17 -3 31 2 15 0 36 -6 48 -19 40 -21 56 -9
60 9 3 9 8 0 17 -7 8 -8 22 -3 40 4 15 6 61 4 101 -2 41 1 106 7 144 7 48 7
78 0 95 -8 20 -9 15 -4 -25 3 -27 2 -47 -2 -42 -5 4 -9 67 -11 140 -1 87 1
122 7 102 5 -16 6 -48 4 -70 l-5 -40 10 35 c6 19 7 50 4 68 -3 19 -1 32 6 32
5 0 10 -8 11 -17 0 -16 2 -15 10 2 8 18 9 17 5 -5 -2 -14 -7 -33 -11 -42 -4
-10 -3 -18 2 -18 14 0 33 94 28 132 -4 29 -4 30 4 8 8 -24 9 -24 10 -3 1 12
10 28 21 36 11 8 17 17 14 20 -4 3 11 1 32 -5 22 -5 43 -17 48 -25z"/>
<path d="M6320 2959 c-321 -47 -591 -208 -783 -466 -93 -125 -180 -335 -208
-503 -19 -112 -15 -316 10 -435 83 -405 376 -736 771 -870 219 -75 529 -75
755 0 87 29 248 112 320 167 336 252 511 654 465 1069 -31 281 -140 512 -334
705 -170 170 -354 269 -591 319 -95 20 -313 28 -405 14z m782 -614 c52 -18
105 -66 124 -112 19 -43 18 -125 -1 -171 -19 -44 -774 -807 -844 -853 -52 -34
-127 -39 -189 -13 -47 19 -416 383 -444 438 -30 59 -22 151 18 208 58 82 169
111 259 69 22 -10 85 -64 140 -120 55 -56 104 -101 110 -101 6 0 150 140 320
311 171 171 324 318 340 326 30 16 76 30 106 32 8 1 36 -6 61 -14z"/>
</g>
</svg>
